<svg width="93" height="26" viewBox="0 0 93 26" fill="none" xmlns="http://www.w3.org/2000/svg">
<path d="M24.71 3.94V25H19.58V12.37L14.87 25H10.73L5.99 12.34V25H0.86V3.94H6.92L12.83 18.52L18.68 3.94H24.71ZM27.3791 16.6C27.3791 14.88 27.6991 13.37 28.3391 12.07C28.9991 10.77 29.8891 9.77 31.0091 9.07C32.1291 8.37 33.3791 8.02 34.7591 8.02C35.9391 8.02 36.9691 8.26 37.8491 8.74C38.7491 9.22 39.4391 9.85 39.9191 10.63V8.26H45.0491V25H39.9191V22.63C39.4191 23.41 38.7191 24.04 37.8191 24.52C36.9391 25 35.9091 25.24 34.7291 25.24C33.3691 25.24 32.1291 24.89 31.0091 24.19C29.8891 23.47 28.9991 22.46 28.3391 21.16C27.6991 19.84 27.3791 18.32 27.3791 16.6ZM39.9191 16.63C39.9191 15.35 39.5591 14.34 38.8391 13.6C38.1391 12.86 37.2791 12.49 36.2591 12.49C35.2391 12.49 34.3691 12.86 33.6491 13.6C32.9491 14.32 32.5991 15.32 32.5991 16.6C32.5991 17.88 32.9491 18.9 33.6491 19.66C34.3691 20.4 35.2391 20.77 36.2591 20.77C37.2791 20.77 38.1391 20.4 38.8391 19.66C39.5591 18.92 39.9191 17.91 39.9191 16.63ZM53.8904 11.05C54.4904 10.13 55.2404 9.41 56.1404 8.89C57.0404 8.35 58.0404 8.08 59.1404 8.08V13.51H57.7304C56.4504 13.51 55.4904 13.79 54.8504 14.35C54.2104 14.89 53.8904 15.85 53.8904 17.23V25H48.7604V8.26H53.8904V11.05ZM68.4024 25.24C66.9424 25.24 65.6424 24.99 64.5024 24.49C63.3624 23.99 62.4624 23.31 61.8024 22.45C61.1424 21.57 60.7724 20.59 60.6924 19.51H65.7624C65.8224 20.09 66.0924 20.56 66.5724 20.92C67.0524 21.28 67.6424 21.46 68.3424 21.46C68.9824 21.46 69.4724 21.34 69.8124 21.1C70.1724 20.84 70.3524 20.51 70.3524 20.11C70.3524 19.63 70.1024 19.28 69.6024 19.06C69.1024 18.82 68.2924 18.56 67.1724 18.28C65.9724 18 64.9724 17.71 64.1724 17.41C63.3724 17.09 62.6824 16.6 62.1024 15.94C61.5224 15.26 61.2324 14.35 61.2324 13.21C61.2324 12.25 61.4924 11.38 62.0124 10.6C62.5524 9.8 63.3324 9.17 64.3524 8.71C65.3924 8.25 66.6224 8.02 68.0424 8.02C70.1424 8.02 71.7924 8.54 72.9924 9.58C74.2124 10.62 74.9124 12 75.0924 13.72H70.3524C70.2724 13.14 70.0124 12.68 69.5724 12.34C69.1524 12 68.5924 11.83 67.8924 11.83C67.2924 11.83 66.8324 11.95 66.5124 12.19C66.1924 12.41 66.0324 12.72 66.0324 13.12C66.0324 13.6 66.2824 13.96 66.7824 14.2C67.3024 14.44 68.1024 14.68 69.1824 14.92C70.4224 15.24 71.4324 15.56 72.2124 15.88C72.9924 16.18 73.6724 16.68 74.2524 17.38C74.8524 18.06 75.1624 18.98 75.1824 20.14C75.1824 21.12 74.9024 22 74.3424 22.78C73.8024 23.54 73.0124 24.14 71.9724 24.58C70.9524 25.02 69.7624 25.24 68.4024 25.24ZM80.9009 6.52C80.0009 6.52 79.2609 6.26 78.6809 5.74C78.1209 5.2 77.8409 4.54 77.8409 3.76C77.8409 2.96 78.1209 2.3 78.6809 1.78C79.2609 1.24 80.0009 0.969998 80.9009 0.969998C81.7809 0.969998 82.5009 1.24 83.0609 1.78C83.6409 2.3 83.9309 2.96 83.9309 3.76C83.9309 4.54 83.6409 5.2 83.0609 5.74C82.5009 6.26 81.7809 6.52 80.9009 6.52ZM83.4509 8.26V25H78.3209V8.26H83.4509ZM89.5686 25.24C88.6686 25.24 87.9286 24.98 87.3486 24.46C86.7886 23.92 86.5086 23.26 86.5086 22.48C86.5086 21.68 86.7886 21.01 87.3486 20.47C87.9286 19.93 88.6686 19.66 89.5686 19.66C90.4486 19.66 91.1686 19.93 91.7286 20.47C92.3086 21.01 92.5986 21.68 92.5986 22.48C92.5986 23.26 92.3086 23.92 91.7286 24.46C91.1686 24.98 90.4486 25.24 89.5686 25.24Z" fill="#282828"/>
</svg>
